
        <svg xmlns="http://www.w3.org/2000/svg" xmlns:xlink="http://www.w3.org/1999/xlink" version="1.1" width="2505.302209484865" height="3123.718627628882" viewBox="0 0 2505.302209484865 3123.718627628882">
			
			<g transform="scale(6.185931381444112) translate(10, 10)">
				<defs id="SvgjsDefs1061"/><g id="SvgjsG1062" featureKey="rZF8Vg-0" transform="matrix(3.4722222222222223,0,0,3.4722222222222223,36.75,-30.2083326710595)" fill="#000"><polygon xmlns="http://www.w3.org/2000/svg" points="71,48.7 71,18.2 54.8,9 38.7,9 63,22.8 63,36.7 63,53.3 "/><polygon xmlns="http://www.w3.org/2000/svg" points="29,66 54.8,81 54.7,81 55.1,81.3 71.7,71.7 79.7,57.8 55.3,72 29,56.8 "/><polygon xmlns="http://www.w3.org/2000/svg" points="61.2,57 61.3,57 46.9,65.2 54.8,69.8 81,54.5 81,35.2 73,21.3 73,49.8 "/><polygon xmlns="http://www.w3.org/2000/svg" points="61,23.9 34.8,8.7 18.2,18.3 10.2,32.3 35,18 47,25 46.8,25 61,33.2 "/><polygon xmlns="http://www.w3.org/2000/svg" points="35.2,20.3 9,35.6 9,54.8 17,68.7 17,40.2 28.8,33.2 28.8,33.2 43.2,24.9 "/><polygon xmlns="http://www.w3.org/2000/svg" points="19,41.3 19,71.8 35.2,81 51.4,81 27,67.2 27,53.3 27,36.7 "/></g><g id="SvgjsG1063" featureKey="6VBqdG-0" transform="matrix(4.870623709346333,0,0,4.870623709346333,27.64231554546509,243.45814441293206)" fill="#000"><path d="M6.64 9.42 c2.36 0 5.18 1.8 5.18 5.38 c0 3.64 -2.82 5.4 -5.18 5.4 c-1.88 0 -3.12 -1.08 -3.38 -1.92 l0 5.52 l-2.16 0 l0 -6.34 l0 -7.86 l2.16 0 l0 1.62 c0.26 -0.68 1.5 -1.8 3.38 -1.8 z M6.36 18.28 c1.62 0 3.36 -1.16 3.36 -3.48 c0 -2.3 -1.74 -3.46 -3.36 -3.46 s-3.2 1.14 -3.2 3.46 c0 2.34 1.58 3.48 3.2 3.48 z M19.52 9.44 c0.22 0 0.42 0 0.62 0.04 l0 2.06 c-0.2 -0.04 -0.4 -0.04 -0.56 -0.04 c-1.96 0 -3.56 1.4 -3.8 3.6 l0 4.9 l-2.16 0 l0 -10.4 l2.16 0 l0 2.66 c0.44 -1.54 1.78 -2.82 3.74 -2.82 z M26.82 9.42 c2.36 0 5.38 1.8 5.38 5.4 c0 3.62 -3.02 5.38 -5.38 5.38 s-5.38 -1.76 -5.38 -5.38 c0 -3.6 3.02 -5.4 5.38 -5.4 z M26.82 11.34 c-1.52 0 -3.28 1.16 -3.28 3.48 c0 2.3 1.76 3.46 3.28 3.46 s3.28 -1.16 3.28 -3.46 c0 -2.32 -1.76 -3.48 -3.28 -3.48 z M36.260000000000005 5.859999999999999 l0 1.88 l-2.16 0 l0 -1.88 l2.16 0 z M36.260000000000005 9.6 l0 11.5 c0 2.12 -1.12 3.02 -2.82 3.02 c-0.98 0 -1.56 -0.22 -2.04 -0.52 l0 -2.1 c0.48 0.26 0.94 0.42 1.56 0.42 c0.92 0 1.14 -0.68 1.14 -1.4 l0 -10.92 l2.16 0 z M43.440000000000005 9.42 c2.36 0 5.56 1.8 5.06 6.16 l-8.28 0 c0.32 1.86 1.8 2.78 3.48 2.78 c1.38 0 2.12 -0.36 2.88 -0.96 l1.22 1.16 c-0.92 1.04 -2.24 1.64 -4.16 1.64 c-2.64 0 -5.58 -1.8 -5.58 -5.38 c0 -3.6 3.02 -5.4 5.38 -5.4 z M43.440000000000005 11.28 c-1.34 0 -2.84 0.9 -3.2 2.72 l6.36 0 c-0.24 -1.82 -1.82 -2.72 -3.16 -2.72 z M55.34 9.42 c1.88 0 3.5 0.84 4.44 2.52 l-1.68 0.76 c-0.62 -0.84 -1.46 -1.36 -2.74 -1.36 c-1.54 0 -3.3 1.16 -3.3 3.48 c0 2.3 1.76 3.44 3.3 3.44 c1.28 0 2.12 -0.5 2.74 -1.34 l1.7 0.76 c-0.96 1.68 -2.56 2.5 -4.46 2.5 c-2.36 0 -5.38 -1.74 -5.38 -5.36 c0 -3.6 3.02 -5.4 5.38 -5.4 z M66.80000000000001 11.4 l-2.2 0 l0 5.82 c0 0.56 0.2 1 0.84 1 c0.54 0 0.92 -0.1 1.36 -0.28 l0 1.82 c-0.44 0.22 -1.02 0.36 -1.92 0.36 c-1.3 0 -2.44 -0.52 -2.44 -2.82 l0 -5.9 l-1.44 0 l0 -1.8 l1.44 0 l0 -2.44 l2.16 0 l0 2.44 l2.2 0 l0 1.8 z"/></g><g id="SvgjsG1064" featureKey="6VBqdG-1" transform="matrix(3.436426015480821,0,0,3.436426015480821,28.876288617561453,351.206185364295)" fill="#000"><path d="M3.4 17.96 l6.34 0 l0 2.04 l-6.74 0 l-1.8 0 l0 -14 l2.2 0 l6.16 0 l0 2.04 l-6.16 0 l0 3.92 l4.74 0 l0 2 l-4.74 0 l0 4 z M26.6 6 l0 14 l-2.26 0 l0 -9.06 l-4.2 9.06 l-1.86 0 l-4.18 -9.04 l0 9.04 l-2.26 0 l0 -14 l2.18 0 l5.2 11.02 l5.2 -11.02 l2.18 0 z M33.7 6 c3.14 0 5.06 1.92 5.06 4.62 s-1.92 4.5 -5.06 4.5 l-2.5 0 l0 4.88 l-2.2 0 l0 -14 l4.7 0 z M33.6 13.2 c1.78 0 2.96 -0.84 2.96 -2.58 s-1.18 -2.58 -2.96 -2.58 l-2.4 0 l0 5.16 l2.4 0 z M49.34 6 l2.2 0 l0 14 l-2.2 0 l0 -5.92 l-6.48 0 l0 5.92 l-2.2 0 l0 -14 l2.2 0 l0 6.04 l6.48 0 l0 -6.04 z M65.2 20 l-1.28 -2.96 l-7.16 0 l-1.28 2.96 l-2.34 0 l6.24 -14 l1.92 0 l6.24 14 l-2.34 0 z M57.56 15.219999999999999 l5.56 0 l-2.78 -6.44 z M73.56 5.76 c2.3 0 3.88 1.48 4.54 2.92 l-1.64 0.94 c-0.7 -1.18 -1.6 -1.9 -2.9 -1.9 s-2.22 0.76 -2.22 1.8 c0 0.98 0.62 1.58 1.96 2.08 l0.98 0.36 c2.78 1.02 4.2 2.22 4.2 4.32 c0 2.58 -2.46 4.02 -4.84 4.02 c-2.44 0 -4.4 -1.46 -5 -3.44 l1.72 -0.88 c0.5 1.28 1.58 2.32 3.28 2.32 c1.4 0 2.56 -0.74 2.56 -2 c0 -1.34 -0.9 -1.88 -2.5 -2.48 l-0.96 -0.36 c-2.1 -0.78 -3.58 -1.84 -3.58 -4.02 c0 -2.12 1.92 -3.68 4.4 -3.68 z M82.58 6 l0 14 l-2.2 0 l0 -14 l2.2 0 z M89.39999999999999 5.76 c2.3 0 3.88 1.48 4.54 2.92 l-1.64 0.94 c-0.7 -1.18 -1.6 -1.9 -2.9 -1.9 s-2.22 0.76 -2.22 1.8 c0 0.98 0.62 1.58 1.96 2.08 l0.98 0.36 c2.78 1.02 4.2 2.22 4.2 4.32 c0 2.58 -2.46 4.02 -4.84 4.02 c-2.44 0 -4.4 -1.46 -5 -3.44 l1.72 -0.88 c0.5 1.28 1.58 2.32 3.28 2.32 c1.4 0 2.56 -0.74 2.56 -2 c0 -1.34 -0.9 -1.88 -2.5 -2.48 l-0.96 -0.36 c-2.1 -0.78 -3.58 -1.84 -3.58 -4.02 c0 -2.12 1.92 -3.68 4.4 -3.68 z"/></g><g id="SvgjsG1065" featureKey="rMoqOW-0" transform="matrix(0.6523876203309741,0,0,0.6523876203309741,-0.4566702765506415,452.2422477797393)" fill="#000"><path d="M5.72 5.76 c2.38 0 3.96 1.52 4.66 2.9 l-1.94 1.14 c-0.74 -1.1 -1.54 -1.72 -2.72 -1.72 c-1.12 0 -1.92 0.66 -1.92 1.56 c0 0.86 0.52 1.36 1.72 1.8 l0.96 0.36 c2.98 1.06 4.28 2.36 4.28 4.36 c0 2.72 -2.58 4.14 -4.96 4.14 c-2.5 0 -4.46 -1.48 -5.1 -3.44 l2.02 -1.06 c0.5 1.12 1.44 2.12 3.08 2.12 c1.24 0 2.24 -0.6 2.24 -1.72 c0 -1.14 -0.72 -1.64 -2.28 -2.22 l-0.9 -0.32 c-2.08 -0.76 -3.66 -1.8 -3.66 -4.12 c0 -2.2 2.02 -3.78 4.52 -3.78 z M34.54 6 l2.62 0 l0 8.92 c0 3.4 -2.42 5.38 -5.32 5.38 c-2.92 0 -5.34 -1.98 -5.34 -5.38 l0 -8.92 l2.62 0 l0 8.92 c0 2.2 1.4 2.92 2.72 2.92 s2.7 -0.72 2.7 -2.92 l0 -8.92 z M57.92 5.76 c2.38 0 3.96 1.52 4.66 2.9 l-1.94 1.14 c-0.74 -1.1 -1.54 -1.72 -2.72 -1.72 c-1.12 0 -1.92 0.66 -1.92 1.56 c0 0.86 0.52 1.36 1.72 1.8 l0.96 0.36 c2.98 1.06 4.28 2.36 4.28 4.36 c0 2.72 -2.58 4.14 -4.96 4.14 c-2.5 0 -4.46 -1.48 -5.1 -3.44 l2.02 -1.06 c0.5 1.12 1.44 2.12 3.08 2.12 c1.24 0 2.24 -0.6 2.24 -1.72 c0 -1.14 -0.72 -1.64 -2.28 -2.22 l-0.9 -0.32 c-2.08 -0.76 -3.66 -1.8 -3.66 -4.12 c0 -2.2 2.02 -3.78 4.52 -3.78 z M87.5 6 l0 2.42 l-3.6 0 l0 11.58 l-2.62 0 l0 -11.58 l-3.58 0 l0 -2.42 l9.8 0 z M114.56000000000002 20 l-1.16 -2.7 l-6.92 0 l-1.16 2.7 l-2.78 0 l6.24 -14 l2.34 0 l6.22 14 l-2.78 0 z M107.40000000000002 15.16 l5.08 0 l-2.54 -5.92 z M135.4 6 l0 14 l-2.62 0 l0 -14 l2.62 0 z M160.94 6 l2.62 0 l0 14 l-2 0 l-7.3 -9.22 l0 9.22 l-2.62 0 l0 -14 l2.02 0 l7.28 9.24 l0 -9.24 z M191.01999999999998 20 l-1.16 -2.7 l-6.92 0 l-1.16 2.7 l-2.78 0 l6.24 -14 l2.34 0 l6.22 14 l-2.78 0 z M183.85999999999999 15.16 l5.08 0 l-2.54 -5.92 z M216.72 12.26 c1.58 0.4 2.94 1.76 2.94 3.66 c0 2.54 -1.6 4.08 -5.1 4.08 l-5.32 0 l0 -14 l5.1 0 c2.88 0 4.32 1.62 4.32 3.48 c0 1.46 -0.92 2.36 -1.94 2.78 z M214.12 8.3 l-2.26 0 l0 3.18 l2.26 0 c1.32 0 1.94 -0.66 1.94 -1.6 c0 -1 -0.66 -1.58 -1.94 -1.58 z M214.44 17.7 c1.78 0 2.6 -0.74 2.6 -2.08 c0 -1.16 -0.82 -2.02 -2.68 -2.02 l-2.5 0 l0 4.1 l2.58 0 z M238.01999999999998 17.58 l5.68 0 l0 2.42 l-8.3 0 l0 -14 l2.62 0 l0 11.58 z M262.15999999999997 17.58 l6.1 0 l0 2.42 l-6.5 0 l-2.22 0 l0 -14 l2.62 0 l5.92 0 l0 2.42 l-5.92 0 l0 3.36 l4.5 0 l0 2.36 l-4.5 0 l0 3.44 z M306.65999999999997 6 l0 14 l-2.62 0 l0 -14 l2.62 0 z M327.42 5.76 c2.38 0 3.96 1.52 4.66 2.9 l-1.94 1.14 c-0.74 -1.1 -1.54 -1.72 -2.72 -1.72 c-1.12 0 -1.92 0.66 -1.92 1.56 c0 0.86 0.52 1.36 1.72 1.8 l0.96 0.36 c2.98 1.06 4.28 2.36 4.28 4.36 c0 2.72 -2.58 4.14 -4.96 4.14 c-2.5 0 -4.46 -1.48 -5.1 -3.44 l2.02 -1.06 c0.5 1.12 1.44 2.12 3.08 2.12 c1.24 0 2.24 -0.6 2.24 -1.72 c0 -1.14 -0.72 -1.64 -2.28 -2.22 l-0.9 -0.32 c-2.08 -0.76 -3.66 -1.8 -3.66 -4.12 c0 -2.2 2.02 -3.78 4.52 -3.78 z M350.82 17.58 l5.68 0 l0 2.42 l-8.3 0 l0 -14 l2.62 0 l0 11.58 z M383.56 20 l-1.16 -2.7 l-6.92 0 l-1.16 2.7 l-2.78 0 l6.24 -14 l2.34 0 l6.22 14 l-2.78 0 z M376.4 15.16 l5.08 0 l-2.54 -5.92 z M411.08 6 l2.62 0 l0 14 l-2 0 l-7.3 -9.22 l0 9.22 l-2.62 0 l0 -14 l2.02 0 l7.28 9.24 l0 -9.24 z M434.74 6 c4 0 7.08 3.1 7.08 6.94 c0 3.96 -3.08 7.06 -7.08 7.06 l-4.8 0 l0 -14 l4.8 0 z M434.72 17.52 c2.84 0 4.44 -2.06 4.44 -4.58 c0 -2.4 -1.6 -4.46 -4.44 -4.46 l-2.16 0 l0 9.04 l2.16 0 z M482.02000000000004 5.76 c2.38 0 3.96 1.52 4.66 2.9 l-1.94 1.14 c-0.74 -1.1 -1.54 -1.72 -2.72 -1.72 c-1.12 0 -1.92 0.66 -1.92 1.56 c0 0.86 0.52 1.36 1.72 1.8 l0.96 0.36 c2.98 1.06 4.28 2.36 4.28 4.36 c0 2.72 -2.58 4.14 -4.96 4.14 c-2.5 0 -4.46 -1.48 -5.1 -3.44 l2.02 -1.06 c0.5 1.12 1.44 2.12 3.08 2.12 c1.24 0 2.24 -0.6 2.24 -1.72 c0 -1.14 -0.72 -1.64 -2.28 -2.22 l-0.9 -0.32 c-2.08 -0.76 -3.66 -1.8 -3.66 -4.12 c0 -2.2 2.02 -3.78 4.52 -3.78 z M511.6 6 l0 2.42 l-3.6 0 l0 11.58 l-2.62 0 l0 -11.58 l-3.58 0 l0 -2.42 l9.8 0 z M538.66 20 l-1.16 -2.7 l-6.92 0 l-1.16 2.7 l-2.78 0 l6.24 -14 l2.34 0 l6.22 14 l-2.78 0 z M531.5 15.16 l5.08 0 l-2.54 -5.92 z M566.2800000000001 6 l0 2.42 l-3.6 0 l0 11.58 l-2.62 0 l0 -11.58 l-3.58 0 l0 -2.42 l9.8 0 z M584.7400000000001 17.58 l6.1 0 l0 2.42 l-6.5 0 l-2.22 0 l0 -14 l2.62 0 l5.92 0 l0 2.42 l-5.92 0 l0 3.36 l4.5 0 l0 2.36 l-4.5 0 l0 3.44 z"/></g><g id="SvgjsG1066" featureKey="rMoqOW-1" transform="matrix(0.6523876203309741,0,0,0.6523876203309741,120.54332972344936,471.2422477797392)" fill="#000"><path d="M5.72 5.76 c2.38 0 3.96 1.52 4.66 2.9 l-1.94 1.14 c-0.74 -1.1 -1.54 -1.72 -2.72 -1.72 c-1.12 0 -1.92 0.66 -1.92 1.56 c0 0.86 0.52 1.36 1.72 1.8 l0.96 0.36 c2.98 1.06 4.28 2.36 4.28 4.36 c0 2.72 -2.58 4.14 -4.96 4.14 c-2.5 0 -4.46 -1.48 -5.1 -3.44 l2.02 -1.06 c0.5 1.12 1.44 2.12 3.08 2.12 c1.24 0 2.24 -0.6 2.24 -1.72 c0 -1.14 -0.72 -1.64 -2.28 -2.22 l-0.9 -0.32 c-2.08 -0.76 -3.66 -1.8 -3.66 -4.12 c0 -2.2 2.02 -3.78 4.52 -3.78 z M33.44 5.800000000000001 c3.84 0 7.24 2.96 7.24 7.2 s-3.4 7.2 -7.24 7.2 s-7.24 -2.96 -7.24 -7.2 s3.4 -7.2 7.24 -7.2 z M33.44 17.740000000000002 c2.44 0 4.5 -1.98 4.5 -4.74 s-2.06 -4.74 -4.5 -4.74 c-2.46 0 -4.52 1.98 -4.52 4.74 s2.06 4.74 4.52 4.74 z M59.24 17.58 l5.68 0 l0 2.42 l-8.3 0 l0 -14 l2.62 0 l0 11.58 z M88.8 6 l2.62 0 l0 8.92 c0 3.4 -2.42 5.38 -5.32 5.38 c-2.92 0 -5.34 -1.98 -5.34 -5.38 l0 -8.92 l2.62 0 l0 8.92 c0 2.2 1.4 2.92 2.72 2.92 s2.7 -0.72 2.7 -2.92 l0 -8.92 z M117.06 6 l0 2.42 l-3.6 0 l0 11.58 l-2.62 0 l0 -11.58 l-3.58 0 l0 -2.42 l9.8 0 z M135.52 6 l0 14 l-2.62 0 l0 -14 l2.62 0 z M158.7 5.800000000000001 c3.84 0 7.24 2.96 7.24 7.2 s-3.4 7.2 -7.24 7.2 s-7.24 -2.96 -7.24 -7.2 s3.4 -7.2 7.24 -7.2 z M158.7 17.740000000000002 c2.44 0 4.5 -1.98 4.5 -4.74 s-2.06 -4.74 -4.5 -4.74 c-2.46 0 -4.52 1.98 -4.52 4.74 s2.06 4.74 4.52 4.74 z M191.18 6 l2.62 0 l0 14 l-2 0 l-7.3 -9.22 l0 9.22 l-2.62 0 l0 -14 l2.02 0 l7.28 9.24 l0 -9.24 z M214.56 5.76 c2.38 0 3.96 1.52 4.66 2.9 l-1.94 1.14 c-0.74 -1.1 -1.54 -1.72 -2.72 -1.72 c-1.12 0 -1.92 0.66 -1.92 1.56 c0 0.86 0.52 1.36 1.72 1.8 l0.96 0.36 c2.98 1.06 4.28 2.36 4.28 4.36 c0 2.72 -2.58 4.14 -4.96 4.14 c-2.5 0 -4.46 -1.48 -5.1 -3.44 l2.02 -1.06 c0.5 1.12 1.44 2.12 3.08 2.12 c1.24 0 2.24 -0.6 2.24 -1.72 c0 -1.14 -0.72 -1.64 -2.28 -2.22 l-0.9 -0.32 c-2.08 -0.76 -3.66 -1.8 -3.66 -4.12 c0 -2.2 2.02 -3.78 4.52 -3.78 z"/></g>
			</g>
		</svg>
	